<?xml version="1.0" encoding="UTF-8"?>
<svg version="1.1" xmlns="http://www.w3.org/2000/svg" width="400" height="400">
<path d="M0 0 C1.23391228 -0.01058945 1.23391228 -0.01058945 2.49275208 -0.02139282 C36.44592663 -0.24667095 36.44592663 -0.24667095 51.171875 3.203125 C52.06503418 3.40180176 52.95819336 3.60047852 53.87841797 3.80517578 C80.05158526 9.7223948 105.43787555 20.28134731 127.171875 36.203125 C128.73228516 37.33814453 128.73228516 37.33814453 130.32421875 38.49609375 C137.93010108 44.13609215 144.93699192 50.32606186 151.77490234 56.86914062 C152.96618746 58.00671173 154.17117264 59.12990724 155.37890625 60.25 C187.35060068 90.72403868 210.20998236 140.36129218 211.33300781 184.46582031 C211.35254956 185.98756911 211.36630412 187.50940058 211.375 189.03125 C211.38205963 189.85385818 211.38911926 190.67646637 211.39639282 191.52400208 C211.62167095 225.47717663 211.62167095 225.47717663 208.171875 240.203125 C207.87385986 241.54286377 207.87385986 241.54286377 207.56982422 242.90966797 C201.6526052 269.08283526 191.09365269 294.46912555 175.171875 316.203125 C174.41519531 317.24339844 173.65851563 318.28367187 172.87890625 319.35546875 C167.23890785 326.96135108 161.04893814 333.96824192 154.50585938 340.80615234 C153.36828827 341.99743746 152.24509276 343.20242264 151.125 344.41015625 C120.65096132 376.38185068 71.01370782 399.24123236 26.90917969 400.36425781 C25.38743089 400.38379956 23.86559942 400.39755412 22.34375 400.40625 C21.10983772 400.41683945 21.10983772 400.41683945 19.85099792 400.42764282 C-14.10217663 400.65292095 -14.10217663 400.65292095 -28.828125 397.203125 C-30.16786377 396.90510986 -30.16786377 396.90510986 -31.53466797 396.60107422 C-57.70783526 390.6838552 -83.09412555 380.12490269 -104.828125 364.203125 C-105.86839844 363.44644531 -106.90867187 362.68976563 -107.98046875 361.91015625 C-115.58635108 356.27015785 -122.59324192 350.08018814 -129.43115234 343.53710938 C-130.62243746 342.39953827 -131.82742264 341.27634276 -133.03515625 340.15625 C-165.00685068 309.68221132 -187.86623236 260.04495782 -188.98925781 215.94042969 C-189.00879956 214.41868089 -189.02255412 212.89684942 -189.03125 211.375 C-189.03830963 210.55239182 -189.04536926 209.72978363 -189.05264282 208.88224792 C-189.27792095 174.92907337 -189.27792095 174.92907337 -185.828125 160.203125 C-185.62944824 159.30996582 -185.43077148 158.41680664 -185.22607422 157.49658203 C-179.3088552 131.32341474 -168.74990269 105.93712445 -152.828125 84.203125 C-152.07144531 83.16285156 -151.31476563 82.12257813 -150.53515625 81.05078125 C-144.89515785 73.44489892 -138.70518814 66.43800808 -132.16210938 59.60009766 C-131.02453827 58.40881254 -129.90134276 57.20382736 -128.78125 55.99609375 C-97.01652998 22.67028706 -45.85508406 0.26201706 0 0 Z " fill="#03020D" transform="translate(188.828125,-0.203125)"/>
<path d="M0 0 C1.57587891 -0.06767578 1.57587891 -0.06767578 3.18359375 -0.13671875 C8.73329833 -0.18533944 12.48403437 0.25883565 16.9453125 3.7265625 C19.42962375 6.30930078 20.07825606 7.11209732 20.41015625 10.75390625 C19.91455078 12.50048828 19.91455078 12.50048828 19.125 14.625 C18.80901855 15.58003418 18.49303711 16.53506836 18.16748047 17.51904297 C17.02056845 20.88907551 15.80139801 24.22525405 14.5625 27.5625 C14.13775391 28.72330078 13.71300781 29.88410156 13.27539062 31.08007812 C12.2313622 33.93062764 11.17900421 36.77812399 10.125 39.625 C5.175 39.625 0.225 39.625 -4.875 39.625 C-4.215 37.315 -3.555 35.005 -2.875 32.625 C-3.76703125 32.65980469 -4.6590625 32.69460938 -5.578125 32.73046875 C-6.74859375 32.75753906 -7.9190625 32.78460938 -9.125 32.8125 C-10.86523438 32.86470703 -10.86523438 32.86470703 -12.640625 32.91796875 C-16.09768407 32.60482934 -17.39065563 31.96790892 -19.875 29.625 C-20.16375 30.5325 -20.4525 31.44 -20.75 32.375 C-21.875 35.625 -21.875 35.625 -23.875 39.625 C-28.495 39.625 -33.115 39.625 -37.875 39.625 C-36.553882 33.01940999 -33.67302598 27.62896846 -30.6875 21.625 C-30.12224609 20.449375 -29.55699219 19.27375 -28.97460938 18.0625 C-23.62727326 7.28207439 -23.62727326 7.28207439 -17.875 3.625 C-17.00617188 3.03976563 -16.13734375 2.45453125 -15.2421875 1.8515625 C-10.18548838 0.00956305 -5.34282674 0.03253853 0 0 Z " fill="#D2F500" transform="translate(306.875,245.375)"/>
<path d="M0 0 C1.4883163 0.00574353 2.97660671 0.01875734 4.46484375 0.03515625 C7.08421875 0.05578125 9.70359375 0.07640625 12.40234375 0.09765625 C12.73234375 8.01765625 13.06234375 15.93765625 13.40234375 24.09765625 C14.88734375 22.17953125 16.37234375 20.26140625 17.90234375 18.28515625 C18.40233887 17.65222656 18.90233398 17.01929688 19.41748047 16.3671875 C21.60920499 13.57213707 23.52344253 10.88460279 25.28515625 7.78515625 C27.12480834 4.61732485 28.53272767 2.39154998 31.40234375 0.09765625 C36.66313106 -1.18316075 42.08802043 -0.54083648 47.40234375 0.09765625 C45.22472832 7.76174584 42.6490465 15.26212183 39.95849609 22.76000977 C39.26775922 24.6868933 38.58290803 26.61580468 37.8984375 28.54492188 C37.46402344 29.75986328 37.02960938 30.97480469 36.58203125 32.2265625 C36.18741699 33.3307251 35.79280273 34.4348877 35.38623047 35.57250977 C34.40234375 38.09765625 34.40234375 38.09765625 33.40234375 39.09765625 C31.0492082 39.17037366 28.69400707 39.18136493 26.33984375 39.16015625 C25.04949219 39.15113281 23.75914062 39.14210938 22.4296875 39.1328125 C21.43066406 39.12121094 20.43164062 39.10960937 19.40234375 39.09765625 C21.32791011 32.24147299 23.64959205 25.66513493 26.40234375 19.09765625 C25.66628906 20.03867187 24.93023437 20.9796875 24.171875 21.94921875 C23.18624608 23.20706899 22.20056628 24.46487936 21.21484375 25.72265625 C20.73208984 26.34011719 20.24933594 26.95757812 19.75195312 27.59375 C18.78234113 28.83016799 17.80722906 30.06229255 16.82666016 31.29003906 C15.89365746 32.47412407 14.98324621 33.67644738 14.09912109 34.89746094 C12.8515625 36.55859375 12.8515625 36.55859375 10.40234375 39.09765625 C8.75234375 39.09765625 7.10234375 39.09765625 5.40234375 39.09765625 C4.74234375 32.82765625 4.08234375 26.55765625 3.40234375 20.09765625 C1.09234375 26.36765625 -1.21765625 32.63765625 -3.59765625 39.09765625 C-8.21765625 39.09765625 -12.83765625 39.09765625 -17.59765625 39.09765625 C-15.40128197 30.50125094 -12.59069817 22.27545375 -9.47265625 13.97265625 C-9.01761719 12.74289062 -8.56257812 11.513125 -8.09375 10.24609375 C-4.3178257 0.11720482 -4.3178257 0.11720482 0 0 Z " fill="#FAFAFA" transform="translate(182.59765625,245.90234375)"/>
<path d="M0 0 C5.17778402 -0.07431132 10.35525569 -0.12867808 15.53344727 -0.16479492 C17.29391896 -0.17985553 19.0543533 -0.20030826 20.81469727 -0.22631836 C23.34921503 -0.26282229 25.88323552 -0.27975354 28.41796875 -0.29296875 C29.20149216 -0.30845261 29.98501556 -0.32393646 30.7922821 -0.33988953 C35.39934524 -0.3412995 38.31106219 0.18851288 42 3 C42.495 3.495 42.495 3.495 43 4 C42.68622125 9.96179616 41.67744205 15.1665057 38 20 C33.06594007 24.11320367 28.31750291 27.14409577 21.76953125 27.09765625 C20.96708984 27.09443359 20.16464844 27.09121094 19.33789062 27.08789062 C18.08782227 27.07532227 18.08782227 27.07532227 16.8125 27.0625 C15.96751953 27.05798828 15.12253906 27.05347656 14.25195312 27.04882812 C12.16793845 27.03705403 10.08396023 27.0191189 8 27 C7.67 25.68 7.34 24.36 7 23 C5.02 28.28 3.04 33.56 1 39 C-3.62 39 -8.24 39 -13 39 C-12.1774925 34.06495503 -11.00311654 29.82868976 -9.27734375 25.1953125 C-9.01240616 24.4713327 -8.74746857 23.74735291 -8.47450256 23.00143433 C-7.63375226 20.70744793 -6.78575273 18.4162214 -5.9375 16.125 C-5.36344998 14.56267713 -4.78987726 13.0001788 -4.21679688 11.4375 C-2.81671209 7.62294772 -1.41012313 3.81085222 0 0 Z " fill="#FBFBFB" transform="translate(234,246)"/>
<path d="M0 0 C5.17778402 -0.07431132 10.35525569 -0.12867808 15.53344727 -0.16479492 C17.29391896 -0.17985553 19.0543533 -0.20030826 20.81469727 -0.22631836 C23.34921503 -0.26282229 25.88323552 -0.27975354 28.41796875 -0.29296875 C29.20149216 -0.30845261 29.98501556 -0.32393646 30.7922821 -0.33988953 C35.34138559 -0.34128176 38.48110878 -0.00741198 42 3 C42.97289622 9.26977565 41.6091736 14.74664732 38 20 C35.51481056 22.09815174 32.91653704 23.58160601 30 25 C29.38801758 25.34603271 28.77603516 25.69206543 28.14550781 26.04858398 C25.78317138 27.0961517 24.24017988 27.23200257 21.671875 27.1953125 C20.87265625 27.18886719 20.0734375 27.18242187 19.25 27.17578125 C18.425 27.15902344 17.6 27.14226562 16.75 27.125 C15.90953125 27.11597656 15.0690625 27.10695313 14.203125 27.09765625 C12.13529396 27.07415817 10.06761005 27.03828908 8 27 C7.505 24.525 7.505 24.525 7 22 C5.02 27.61 3.04 33.22 1 39 C-3.95 39 -8.9 39 -14 39 C-12.60705644 34.93648926 -11.2107163 30.87419648 -9.8125 26.8125 C-9.42513672 25.68134766 -9.03777344 24.55019531 -8.63867188 23.38476562 C-5.92693827 15.51849707 -3.03703957 7.74617512 0 0 Z " fill="#FBFBFB" transform="translate(76,246)"/>
<path d="M0 0 C4.95 0 9.9 0 15 0 C11.7 9.57 8.4 19.14 5 29 C11.27 28.67 17.54 28.34 24 28 C27.92920126 18.75482057 31.5206405 9.42177075 35 0 C39.62 0 44.24 0 49 0 C43.19145645 28.12708529 43.19145645 28.12708529 33.88989258 34.26928711 C31.32532639 35.69436145 28.72080552 36.90551166 26 38 C25.01 38.495 25.01 38.495 24 39 C21.54255941 39.1107039 19.11429624 39.1640901 16.65625 39.16796875 C15.93135376 39.17129715 15.20645752 39.17462555 14.45959473 39.17805481 C12.92635737 39.18311925 11.39310899 39.18546328 9.85986328 39.18530273 C7.50925657 39.18749138 5.15911751 39.20565751 2.80859375 39.22460938 C1.32031411 39.22754292 -0.16796777 39.22952798 -1.65625 39.23046875 C-2.71410706 39.24124702 -2.71410706 39.24124702 -3.79333496 39.25224304 C-8.77117152 39.22882848 -8.77117152 39.22882848 -11 37 C-11.46225645 31.67544494 -10.46780888 27.71590306 -8.59375 22.75390625 C-8.34959351 22.09792953 -8.10543701 21.44195282 -7.85388184 20.76609802 C-7.07988832 18.6940516 -6.2902853 16.62838003 -5.5 14.5625 C-4.9690045 13.14948177 -4.43904624 11.73607329 -3.91015625 10.32226562 C-2.62058545 6.87599883 -1.31002556 3.4388171 0 0 Z " fill="#F8F8F9" transform="translate(125,246)"/>
<path d="M0 0 C1.29139893 0.0165564 1.29139893 0.0165564 2.60888672 0.03344727 C3.3567041 0.04303467 4.10452148 0.05262207 4.875 0.0625 C2.63676834 7.7571658 0.18098274 15.36404223 -2.4375 22.9375 C-2.80294922 24.05125 -3.16839844 25.165 -3.54492188 26.3125 C-6.69052668 35.330987 -6.69052668 35.330987 -10.08203125 37.8046875 C-13.18298871 39.08646966 -15.17249107 39.49236535 -18.5 39.3125 C-20.04166667 39.22916667 -21.58333333 39.14583333 -23.125 39.0625 C-20.96117709 31.48225558 -18.42387556 24.07891177 -15.6875 16.6875 C-15.11418945 15.08841797 -15.11418945 15.08841797 -14.52929688 13.45703125 C-14.14966797 12.43222656 -13.77003906 11.40742188 -13.37890625 10.3515625 C-13.04189697 9.43068848 -12.7048877 8.50981445 -12.35766602 7.56103516 C-9.50527174 1.77941444 -6.21278413 -0.07965108 0 0 Z " fill="#D1F300" transform="translate(345.125,245.9375)"/>
<path d="M0 0 C1.09570312 0.00902344 2.19140625 0.01804688 3.3203125 0.02734375 C4.16335938 0.03894531 5.00640625 0.05054688 5.875 0.0625 C7.80833451 5.26669603 4.97198069 9.23308992 2.875 14.0625 C-2.735 14.0625 -8.345 14.0625 -14.125 14.0625 C-12.41367479 8.92852438 -10.92646063 5.52732788 -8.125 1.0625 C-5.36047967 -0.31976016 -3.0788637 -0.03275387 0 0 Z " fill="#07080C" transform="translate(305.125,254.9375)"/>
<path d="M0 0 C1.29456734 2.58913468 0.93282201 4.13808725 0.625 7 C0.53476563 7.886875 0.44453125 8.77375 0.3515625 9.6875 C0 12 0 12 -1 14 C-1.36270588 15.99488234 -1.69169075 17.99598989 -2 20 C-2.88888889 25.77777778 -2.88888889 25.77777778 -4 28 C-4.15176207 29.45579167 -4.27313037 30.91486861 -4.375 32.375 C-4.73777486 36.06816701 -5.29139146 38.29139146 -8 41 C-7.67 38.03 -7.34 35.06 -7 32 C-8.32 32.66 -9.64 33.32 -11 34 C-13.578125 34.1953125 -13.578125 34.1953125 -16.25 34.125 C-17.58804688 34.09792969 -17.58804688 34.09792969 -18.953125 34.0703125 C-19.62859375 34.04710937 -20.3040625 34.02390625 -21 34 C-21 33.67 -21 33.34 -21 33 C-20.25234375 32.84144531 -19.5046875 32.68289062 -18.734375 32.51953125 C-12.54223262 31.11306188 -12.54223262 31.11306188 -7.375 27.625 C-5.70252894 24.73148325 -5.70252894 24.73148325 -5 20 C-9.29 20 -13.58 20 -18 20 C-18 19.67 -18 19.34 -18 19 C-17.24074219 18.82984375 -16.48148438 18.6596875 -15.69921875 18.484375 C-14.20841797 18.12085938 -14.20841797 18.12085938 -12.6875 17.75 C-11.70136719 17.51796875 -10.71523437 17.2859375 -9.69921875 17.046875 C-6.54192413 15.82233816 -5.52098957 15.01083259 -4 12 C-4 10.02 -4 8.04 -4 6 C-8.95 4.68 -13.9 3.36 -19 2 C-19 1.67 -19 1.34 -19 1 C-17.06833984 1.01740234 -17.06833984 1.01740234 -15.09765625 1.03515625 C-13.41927228 1.0445327 -11.74088674 1.05363305 -10.0625 1.0625 C-9.21236328 1.07087891 -8.36222656 1.07925781 -7.48632812 1.08789062 C-6.67744141 1.09111328 -5.86855469 1.09433594 -5.03515625 1.09765625 C-4.2862915 1.10289307 -3.53742676 1.10812988 -2.76586914 1.11352539 C-0.97332261 1.19341752 -0.97332261 1.19341752 0 0 Z " fill="#5213CD" transform="translate(217,192)"/>
<path d="M0 0 C1.52101592 4.74655012 0.05109576 8.1113003 -1.5 12.6875 C-1.77263672 13.49533936 -2.04527344 14.30317871 -2.32617188 15.13549805 C-4.54578418 21.36966425 -7.2476046 26.31240999 -12 31 C-12.5053125 31.51820313 -13.010625 32.03640625 -13.53125 32.5703125 C-18.55600865 37.24761443 -24.3581935 38.35879234 -31 38.203125 C-34.16368909 37.88181283 -36.98705424 37.00431525 -40 36 C-40 35.67 -40 35.34 -40 35 C-38.49759766 34.94392578 -38.49759766 34.94392578 -36.96484375 34.88671875 C-27.40727636 34.45086486 -20.04672757 33.65723466 -12.69140625 26.9765625 C-6.3221829 19.53354399 -3.30547537 9.06811827 0 0 Z " fill="#5414D4" transform="translate(240,147)"/>
<path d="M0 0 C4.95 0 9.9 0 15 0 C16 4 16 4 15.1875 6.1875 C14 8 14 8 12 9 C9.44842345 9.0716735 6.92527029 9.09308442 4.375 9.0625 C3.66859375 9.05798828 2.9621875 9.05347656 2.234375 9.04882812 C0.48954725 9.03703875 -1.255237 9.01910324 -3 9 C-2.01 6.03 -1.02 3.06 0 0 Z " fill="#13131C" transform="translate(87,255)"/>
<path d="M0 0 C5.28 0 10.56 0 16 0 C15 7 15 7 13 9 C10.41935871 9.14497985 7.95056116 9.18677545 5.375 9.125 C4.66859375 9.11597656 3.9621875 9.10695313 3.234375 9.09765625 C1.48943902 9.07407603 -0.25532295 9.03820461 -2 9 C-1.34 6.03 -0.68 3.06 0 0 Z " fill="#12121C" transform="translate(245,255)"/>
<path d="M0 0 C0.4125 0.37511719 0.825 0.75023437 1.25 1.13671875 C11.98648034 10.65096584 20.57855314 13.39035495 35 13 C31.62127319 16.37872681 28.32347754 16.18618403 23.75 16.25 C15.1528406 16.16412382 10.32843122 14.04716761 4 8 C0 2.63157895 0 2.63157895 0 0 Z " fill="#5314D0" transform="translate(151,170)"/>
<path d="M0 0 C0.33 0 0.66 0 1 0 C2.66666667 8.33333333 4.33333333 16.66666667 6 25 C3.7158631 22.79721592 2.20511218 20.96642998 1 18 C1 17.01 1 16.02 1 15 C-0.0725 15.680625 -1.145 16.36125 -2.25 17.0625 C-5.66157733 19.03471002 -5.66157733 19.03471002 -8.4375 18.75 C-8.953125 18.5025 -9.46875 18.255 -10 18 C-9.071875 17.505 -8.14375 17.01 -7.1875 16.5 C-3.20979105 13.85444829 -2.15325035 10.49251255 -1 6 C-0.60919203 4.01043215 -0.25149128 2.01193023 0 0 Z " fill="#5213CD" transform="translate(185,121)"/>
<path d="M0 0 C7.76217183 2.58739061 13.32872779 13.0654317 17.07421875 19.984375 C18.71249815 23.45367256 19.13939958 25.37749513 18 29 C17.75507813 28.44054687 17.51015625 27.88109375 17.2578125 27.3046875 C14.00889993 20.3363302 9.84492344 14.35883478 5.3046875 8.19921875 C3.37901138 5.52611919 1.63867561 2.85429445 0 0 Z " fill="#5013CA" transform="translate(276,95)"/>
<path d="M0 0 C0 0.99 0 1.98 0 3 C-5.54260624 8.37464847 -11.43133322 10.34039511 -18.984375 10.30078125 C-21 10 -21 10 -24 8 C-23.34515625 7.99742187 -22.6903125 7.99484375 -22.015625 7.9921875 C-14.40000939 7.66949192 -5.61279635 5.61279635 0 0 Z " fill="#4E12C4" transform="translate(272,145)"/>
<path d="M0 0 C2.31 0.33 4.62 0.66 7 1 C6.55520961 6.04095775 4.33845847 8.41115715 1 12 C0.67 12 0.34 12 0 12 C0 8.04 0 4.08 0 0 Z " fill="#1A1A25" transform="translate(195,259)"/>
<path d="M0 0 C-0.65226562 0.32871094 -1.30453125 0.65742188 -1.9765625 0.99609375 C-8.64726681 4.62660981 -12.36273308 8.34646296 -16 15 C-16.6015625 13.1875 -16.6015625 13.1875 -17 11 C-14.14643215 5.73187474 -10.7175999 2.35879995 -5.375 -0.3125 C-3 -1 -3 -1 0 0 Z " fill="#4F13C5" transform="translate(138,170)"/>
<path d="M0 0 C-6.28227935 4.18818623 -11.84247699 4.27812911 -19 3 C-14.5156343 -1.4843657 -5.95860074 -0.10790223 0 0 Z " fill="#5113CC" transform="translate(192,193)"/>
<path d="M0 0 C-1 1.5 -1 1.5 -3 3 C-8.52028344 3.46002362 -12.77482458 2.74172514 -18 1 C-18 0.67 -18 0.34 -18 0 C-15.56288386 -0.19484938 -13.12562602 -0.38115178 -10.6875 -0.5625 C-9.99720703 -0.61857422 -9.30691406 -0.67464844 -8.59570312 -0.73242188 C-5.37487726 -0.96581505 -3.09672655 -1.03224218 0 0 Z " fill="#4611B0" transform="translate(218,182)"/>
<path d="M0 0 C0.391875 0.556875 0.78375 1.11375 1.1875 1.6875 C6.29370057 8.20230763 9.91124177 9.94767611 18 11 C18 11.33 18 11.66 18 12 C12.30030041 12.34198198 7.83441069 12.45315049 3 9 C0.96583665 5.74533864 0 3.8455896 0 0 Z " fill="#4510AE" transform="translate(174,214)"/>
<path d="M0 0 C0.556875 0.37511719 1.11375 0.75023437 1.6875 1.13671875 C6.73448638 4.52126874 11.82564989 7.81361546 17 11 C14 12 14 12 11.66015625 10.92578125 C10.80292969 10.39339844 9.94570312 9.86101562 9.0625 9.3125 C8.20785156 8.79300781 7.35320312 8.27351562 6.47265625 7.73828125 C4.00791713 6.00556575 1.9867519 4.26332989 0 2 C0 1.34 0 0.68 0 0 Z " fill="#4C12BF" transform="translate(109,211)"/>
<path d="M0 0 C3 1 3 1 4.25 3.3125 C5.04631835 6.16597407 4.8214856 7.24802325 4 10 C3.32845067 8.71086513 2.66291141 7.41859796 2 6.125 C1.62875 5.40570313 1.2575 4.68640625 0.875 3.9453125 C0 2 0 2 0 0 Z " fill="#4811B5" transform="translate(290,114)"/>
</svg>
